<svg xmlns="http://www.w3.org/2000/svg" xmlns:xlink="http://www.w3.org/1999/xlink" viewBox="0 0 446.28 770.66"><defs><style>.cls-1{fill:none;}.cls-2{fill:#fff;}.cls-3{opacity:0.6;}.cls-4{clip-path:url(#clip-path);}.cls-5{fill:#010101;}.cls-6{opacity:0.45;}.cls-7{clip-path:url(#clip-path-2);}.cls-8{fill:#cccaca;}.cls-9{opacity:0.8;}.cls-10{clip-path:url(#clip-path-3);}.cls-11{fill:#303030;}.cls-12{clip-path:url(#clip-path-4);}.cls-13{fill:#f2f2f2;}.cls-14{clip-path:url(#clip-path-5);}.cls-15{fill:#3f3f3f;}</style><clipPath id="clip-path" transform="translate(-171.87 -14.21)"><rect class="cls-1" x="270.04" y="465.96" width="248.25" height="129.81"/></clipPath><clipPath id="clip-path-2" transform="translate(-171.87 -14.21)"><rect class="cls-1" x="270.04" y="316.44" width="124.15" height="279.33"/></clipPath><clipPath id="clip-path-3" transform="translate(-171.87 -14.21)"><rect class="cls-1" x="394.19" y="316.44" width="124.15" height="279.33"/></clipPath><clipPath id="clip-path-4" transform="translate(-171.87 -14.21)"><rect class="cls-1" x="270.04" y="545.94" width="124.15" height="174.9"/></clipPath><clipPath id="clip-path-5" transform="translate(-171.87 -14.21)"><rect class="cls-1" x="394.19" y="545.94" width="124.2" height="174.9"/></clipPath></defs><title>logo</title><g id="objects"><path class="cls-2" d="M565.72,139.66c8.67,2.21,14,11.8,14.77,21a38,38,0,0,1,.08,4.62c4.81-6.39,5.23-15.39,2.56-23.16-3.27-9.48-5.61-17.87.52-26.75,7.06-10.19,21.19-13.42,34.42-14.14l.09-44.72-70.6,53C545.17,121.9,549.23,135.45,565.72,139.66Z" transform="translate(-171.87 -14.21)"/><path class="cls-2" d="M612.22,36.67,587.5,14.21,559.05,40.09,530.62,14.25,502.21,40.09l-3.74-3.4a6.46,6.46,0,0,1-1.18-1c-.06-.07-.1-.16-.17-.23L473.74,14.21,445.28,40.09,416.84,14.25l-28.4,25.84-3.74-3.4a6.08,6.08,0,0,1-1.17-1c-.07-.07-.11-.16-.17-.23L360,14.21,331.51,40.09,303.07,14.25l-28.4,25.84-3.74-3.4a6.46,6.46,0,0,1-1.18-1c-.06-.07-.1-.16-.17-.23L246.2,14.21,217.74,40.09,189.26,14.21,171.87,30l0,17.56,223,152.36ZM242,64.12a9.7,9.7,0,0,1,9.7-9.71H535.32a9.71,9.71,0,0,1,0,19.41H251.7A9.7,9.7,0,0,1,242,64.12Zm41.34,35.23a9.7,9.7,0,0,1,9.7-9.71H493.26a9.71,9.71,0,1,1,0,19.41H293A9.7,9.7,0,0,1,283.34,99.35Zm41.34,35.22a9.7,9.7,0,0,1,9.7-9.7H451.2a9.7,9.7,0,1,1,0,19.4H334.38A9.7,9.7,0,0,1,324.68,134.57ZM366,169.79a9.71,9.71,0,0,1,9.71-9.7h33.43a9.71,9.71,0,0,1,0,19.41H375.72A9.71,9.71,0,0,1,366,169.79Z" transform="translate(-171.87 -14.21)"/><path class="cls-2" d="M192.14,183.38a38.81,38.81,0,0,1,5.83-2.61c-9.87-10.36-13.76-25.35-8.17-39.74,4.65-12,.87-16.85-11.61-19.12-2-.37-4.09-.65-6.14-.86l.15,77.84c3.29-.61,6.64-2.69,9.83-6.2C185,189.42,188.21,185.56,192.14,183.38Z" transform="translate(-171.87 -14.21)"/><path class="cls-2" d="M533.41,189.62A20.53,20.53,0,0,1,541,178.88c-6.23-2.94-12.65-5-19.77-3.28-16.4,3.87-11.7,43.37-11.36,57.28h-2.49q7.26.3,14.51.87a30.16,30.16,0,0,1-3-12.76c.1-10,6.28-18.32,8.51-21,0,1.13,0,2.52,0,4.15,0,4.06-.06,9.42-.1,14.76,0,5.65-.09,11.24-.12,15.29l1.94.15c.07-9.15.21-26.56.23-33.84,2.4,3.14,7.8,11.23,7.71,20.69a30.76,30.76,0,0,1-3.68,13.65l.42,0a7.89,7.89,0,0,1,1.07-.89C553,221.66,528.32,205.42,533.41,189.62Z" transform="translate(-171.87 -14.21)"/><path class="cls-2" d="M253.61,237.21c1.37-.18,2.74-.36,4.1-.52a30.8,30.8,0,0,1-3.78-13.63c-.17-9.46,5.17-17.59,7.56-20.74.06,7.27.34,24.69.48,33.84.64-.07,1.29-.11,1.94-.17-.07-4.05-.16-9.64-.24-15.29-.08-5.34-.16-10.7-.21-14.76,0-1.63,0-3,0-4.14,2.24,2.66,8.49,11,8.67,20.94a30.34,30.34,0,0,1-2.86,12.78c3.16-.28,6.31-.53,9.48-.73.56-14.93,4.5-52.2-11.41-55.95-7.11-1.68-13.53.34-19.77,3.27a20.47,20.47,0,0,1,7.58,10.74C260.2,208.65,235.58,224.88,253.61,237.21Z" transform="translate(-171.87 -14.21)"/><path class="cls-2" d="M204.87,118.58c6.13,8.87,3.8,17.26.52,26.75-2.67,7.76-2.25,16.77,2.57,23.15a35.83,35.83,0,0,1,.07-4.61c.76-9.17,7-16.57,14.77-21,7.95-4.49,28.7-12.75,16.72-25.07a9.62,9.62,0,0,1-1-1.2L172,71.11l.07,33.43C184.78,105.42,198.09,108.78,204.87,118.58Z" transform="translate(-171.87 -14.21)"/><path class="cls-2" d="M205.11,402.55c-4-13-18.61-20.47-32.56-22l.1,51.84a28.7,28.7,0,0,0,15.66-3.78C196.85,423.75,208.64,414,205.11,402.55Z" transform="translate(-171.87 -14.21)"/><path class="cls-2" d="M598.72,137.8c5.59,14.39,1.7,29.37-8.16,39.73a40.81,40.81,0,0,1,5.83,2.61c3.92,2.19,7.13,6,10.1,9.31,3.7,4.08,7.61,6.23,11.39,6.38l.15-78.14c-2.57.23-5.14.52-7.7,1C597.85,120.94,594.08,125.81,598.72,137.8Z" transform="translate(-171.87 -14.21)"/><path class="cls-2" d="M533.47,411c-1.76,21.76,10.91,42.35,28.37,54.26,16.65,11.36,36.51,10.48,55.52,6.55l0-22.87c-13.67,3.35-26.63,2.24-40.2-5.53-13.37-7.66-22.55-21.49-22.18-37,.68-28.74,37.72-42.11,62.54-39.09l0-13.09C579.58,352.47,537,366.9,533.47,411Z" transform="translate(-171.87 -14.21)"/><path class="cls-2" d="M571.48,405c-3.53,11.48,8.26,21.2,16.8,26.09,9.61,5.49,19.5,4.27,29.15,1.13l.09-48.65C601.18,380.07,576.83,387.58,571.48,405Z" transform="translate(-171.87 -14.21)"/><path class="cls-2" d="M214.75,462.78c17.46-11.91,30.13-32.5,28.37-54.25-3.15-38.9-36.67-54.69-70.63-56.69l0,12.85c22.88,2.11,48.49,15.37,49.06,39.22.36,15.53-8.82,29.37-22.19,37a51.72,51.72,0,0,1-26.71,7.3l0,23.25C187.4,473,202,471.47,214.75,462.78Z" transform="translate(-171.87 -14.21)"/><path class="cls-2" d="M477,712.55v52.08c2.92-1.49,5.79-3.07,8.65-4.72V707.5Q481.42,710.08,477,712.55Z" transform="translate(-171.87 -14.21)"/><path class="cls-2" d="M509.38,696.05v-4.92c-2.27,1.74-4.59,3.49-7,5.23V749.2q3.56-2.54,7-5.24V696.05Z" transform="translate(-171.87 -14.21)"/><path class="cls-2" d="M489.67,705v52.6c2.64-1.61,5.24-3.34,7.83-5.08V699.77C495,701.52,492.35,703.25,489.67,705Z" transform="translate(-171.87 -14.21)"/><path class="cls-2" d="M464.29,719.14v51.45c3.18-1.34,6.34-2.78,9.45-4.31V714.33Q469.12,716.82,464.29,719.14Z" transform="translate(-171.87 -14.21)"/><path class="cls-2" d="M527.72,728.11c-2.11,2-4.24,4-6.4,5.94Q524.56,731.14,527.72,728.11Z" transform="translate(-171.87 -14.21)"/><path class="cls-2" d="M521.26,696.05v-14.5c-2,1.68-4.06,3.4-6.21,5.13v9.37h0v43.4c2.09-1.74,4.17-3.53,6.21-5.36v-38Z" transform="translate(-171.87 -14.21)"/><path class="cls-2" d="M265.33,570.93q-5.25,1.19-10.26,2.43v38.7c3.15-2.77,6.59-5.67,10.26-8.62Z" transform="translate(-171.87 -14.21)"/><path class="cls-2" d="M600.53,608.37c-1.38,4.22-2.87,8.38-4.4,12.5C597.66,616.75,599.15,612.59,600.53,608.37Z" transform="translate(-171.87 -14.21)"/><path class="cls-2" d="M583.08,593c-2.07-.81-4.15-1.61-6.21-2.39v72.55q6-10.95,11.25-22.64c-1.62,3.63-3.29,7.21-5,10.74Z" transform="translate(-171.87 -14.21)"/><path class="cls-2" d="M576.41,664c-1.85,3.35-3.75,6.67-5.71,9.91C572.67,670.63,574.56,667.31,576.41,664Z" transform="translate(-171.87 -14.21)"/><path class="cls-2" d="M588.74,595.21v43.87q3.74-8.46,7-17.24V598.06C593.42,597.08,591.09,596.14,588.74,595.21Z" transform="translate(-171.87 -14.21)"/><path class="cls-2" d="M540.08,715.31q-3.41,3.78-6.93,7.4Q536.67,719.09,540.08,715.31Z" transform="translate(-171.87 -14.21)"/><path class="cls-2" d="M563.7,684.82c-1.73,2.58-3.49,5.14-5.29,7.65Q561.11,688.71,563.7,684.82Z" transform="translate(-171.87 -14.21)"/><path class="cls-2" d="M553.11,582.31v58l4,4.75-4,4.74v46.21h0v3.56q2.34-3,4.6-6.17V583.84C556.18,583.33,554.64,582.8,553.11,582.31Z" transform="translate(-171.87 -14.21)"/><path class="cls-2" d="M533.15,696.05V670.91c-1.69,1.59-3.51,3.26-5.41,5v52.2c1.82-1.75,3.62-3.55,5.4-5.38V696.05Z" transform="translate(-171.87 -14.21)"/><path class="cls-2" d="M545,696.05h0V659c-1.3,1.39-2.83,3-4.6,4.77v32.25h0v18.87q6.11-6.81,11.81-14.16c-2.36,3-4.75,6-7.21,8.9Z" transform="translate(-171.87 -14.21)"/><path class="cls-2" d="M565,586.25v96.66c1.84-2.8,3.66-5.64,5.41-8.53V588.22C568.59,587.57,566.78,586.88,565,586.25Z" transform="translate(-171.87 -14.21)"/><path class="cls-2" d="M451.61,724.75v50.66q5.17-1.75,10.25-3.82V720.27C458.51,721.84,455.1,723.35,451.61,724.75Z" transform="translate(-171.87 -14.21)"/><path class="cls-2" d="M416,735v48.53c2.89-.36,5.78-.75,8.64-1.24v-49Q420.34,734.23,416,735Z" transform="translate(-171.87 -14.21)"/><path class="cls-2" d="M540.42,626.39c1.77,1.78,3.3,3.38,4.6,4.77V579.8c-1.53-.47-3.07-.94-4.6-1.38Z" transform="translate(-171.87 -14.21)"/><path class="cls-2" d="M392.21,737.24v47.54c1,0,1.88.09,2.83.09,1.41,0,2.8-.1,4.2-.13V737C396.91,737.14,394.57,737.21,392.21,737.24Z" transform="translate(-171.87 -14.21)"/><path class="cls-2" d="M533.15,576.32c-1.81-.5-3.61-1-5.41-1.46v39.45c1.9,1.71,3.72,3.38,5.41,5Z" transform="translate(-171.87 -14.21)"/><path class="cls-2" d="M427.85,732.47v49.21c3.17-.6,6.33-1.28,9.45-2V729.85C434.2,730.81,431,731.67,427.85,732.47Z" transform="translate(-171.87 -14.21)"/><path class="cls-2" d="M240.77,577.08c-3.24.89-6.4,1.79-9.45,2.69v55.72c1.58-1.8,4.79-5.34,9.45-10Z" transform="translate(-171.87 -14.21)"/><path class="cls-2" d="M439.73,729v50q5.17-1.37,10.26-3V725.36C446.63,726.68,443.2,727.9,439.73,729Z" transform="translate(-171.87 -14.21)"/><path class="cls-2" d="M404.09,736.59v48c2.62-.14,5.23-.37,7.84-.62V735.64C409.34,736,406.72,736.34,404.09,736.59Z" transform="translate(-171.87 -14.21)"/><path class="cls-2" d="M600.63,608.08c.76-2.31,1.53-4.62,2.24-7l-2.24-1Z" transform="translate(-171.87 -14.21)"/><path class="cls-2" d="M461.87,561.67c-3.44-.46-6.86-.91-10.26-1.3v5.08c3.49,1.4,6.9,2.91,10.26,4.47Z" transform="translate(-171.87 -14.21)"/><path class="cls-2" d="M437.3,558.93c-2.3-.2-4.61-.39-6.9-.56,2.32.62,4.63,1.27,6.9,2Z" transform="translate(-171.87 -14.21)"/><path class="cls-2" d="M485.63,565.43q-4.35-.79-8.65-1.5v13.72q4.42,2.48,8.65,5.05Z" transform="translate(-171.87 -14.21)"/><path class="cls-2" d="M450,560.2c-3.44-.38-6.86-.76-10.26-1.07v2c3.47,1.14,6.9,2.36,10.26,3.68Z" transform="translate(-171.87 -14.21)"/><path class="cls-2" d="M509.38,570.27c-2.35-.54-4.68-1-7-1.53v25.09c2.44,1.75,4.76,3.49,7,5.24Z" transform="translate(-171.87 -14.21)"/><path class="cls-2" d="M497.5,567.71c-2.62-.54-5.22-1-7.83-1.54v19.06c2.68,1.71,5.3,3.45,7.83,5.19Z" transform="translate(-171.87 -14.21)"/><path class="cls-2" d="M521.26,573.14c-2.07-.53-4.14-1-6.21-1.5v31.87c2.15,1.74,4.24,3.46,6.21,5.13Z" transform="translate(-171.87 -14.21)"/><path class="cls-2" d="M473.75,563.41c-3.17-.5-6.32-1-9.45-1.42v9.07c3.21,1.54,6.37,3.15,9.45,4.81Z" transform="translate(-171.87 -14.21)"/><path class="cls-2" d="M348.49,558.41c-1.54.12-3.08.23-4.6.36v1.32c1.52-.47,3.06-.9,4.6-1.33Z" transform="translate(-171.87 -14.21)"/><path class="cls-2" d="M253.45,573.75q-5.26,1.32-10.25,2.67v46.65c3-2.9,6.39-6.13,10.25-9.57Z" transform="translate(-171.87 -14.21)"/><path class="cls-2" d="M301,564c-2.64.43-5.26.86-7.83,1.32v18.31c2.55-1.59,5.15-3.16,7.83-4.7Z" transform="translate(-171.87 -14.21)"/><path class="cls-2" d="M289.09,566.06q-4.38.8-8.64,1.65v24.34c2.79-2,5.66-3.92,8.64-5.85Z" transform="translate(-171.87 -14.21)"/><path class="cls-2" d="M336.61,559.42l-5.41.56v4.51c1.79-.69,3.59-1.37,5.41-2Z" transform="translate(-171.87 -14.21)"/><path class="cls-2" d="M324.73,560.69c-2.1.25-4.15.52-6.22.79v8.4q3.08-1.43,6.22-2.77Z" transform="translate(-171.87 -14.21)"/><path class="cls-2" d="M312.85,562.23c-2.36.33-4.71.66-7,1v13q3.46-1.87,7-3.66Z" transform="translate(-171.87 -14.21)"/><path class="cls-2" d="M277.21,568.35c-3.21.65-6.36,1.33-9.45,2V601.5c3-2.37,6.16-4.76,9.45-7.14Z" transform="translate(-171.87 -14.21)"/><path class="cls-2" d="M553.67,479.17c-21.29-12.62-33.42-35.87-36.22-59.8-6.69-57.32,52.29-83.13,100.16-81.33L617.85,214a26.4,26.4,0,0,1-8.11-1.51c-6-2.07-10.57-7-14.69-11.57-8.5-9.36-16.62-10.15-28.58-10.06a9.35,9.35,0,0,1-2-.21c-3.73-.08-15-1.69-15.41,3.43-.4,4.47,3.26,10,5,13.88,4.93,10.83,4.69,21.09-.75,29.68,1.44.24,2.9.43,4.34.69.4.11.78.25,1.17.37A29.35,29.35,0,0,1,564,228.22c6.23-7.79,16.24-10.56,19.65-11.31l-2.56,3.26c-2.52,3.19-5.85,7.39-9.18,11.57L564.59,241c.58.31,1.15.63,1.7,1,6-7.48,14.69-18.49,18.61-23.47,0,4-.77,13.65-6.67,21a28.06,28.06,0,0,1-7.18,6.26c5.81,6,7.38,14.09,3.42,21.19-.08.13-.14.25-.21.38a25.49,25.49,0,0,1,3.24.24c9.87,1.43,17.33,8.67,19.69,11.23l-4.11-.56-14.61-2.07-8.42-1.2-1,1.81c9.31,1.33,21.58,3.08,27.37,3.88-3.43,2-12.17,6.23-21.53,4.87a28,28,0,0,1-8.91-3c-3,5.62-5.68,11.07-9.08,18.14a27.93,27.93,0,0,1,5.48,6.93c4.78,8.76,3.45,19.07,2.82,22.5l-2-3.63c-2-3.55-4.54-8.25-7.11-12.93l-3.16-5.77c-.43.55-.86,1.1-1.32,1.62,4.22,7.71,9.16,16.7,11.67,21.21-3.64-1.57-12.29-6-16.82-14.31-.33-.6-.59-1.22-.87-1.83A29.9,29.9,0,0,1,524,318.85l-1.36-.14a28.79,28.79,0,0,1,2.72,10.07c.68,10-4.84,18.77-6.84,21.61-.09-1.11-.2-2.51-.31-4.14-.3-4-.69-9.39-1.06-14.72-.35-4.88-.68-9.65-1-13.48l-1.95-.18c.66,9.44,1.77,25.32,2.3,32.17-2.66-3-8.66-10.59-9.31-20a29.85,29.85,0,0,1,2.08-12.54,216.56,216.56,0,0,0-28.67-.12,28.61,28.61,0,0,1,2.69,10c.67,10-4.84,18.77-6.84,21.61-.09-1.12-.2-2.51-.32-4.13-.29-4.05-.68-9.4-1.05-14.73-.31-4.4-.62-8.76-.87-12.39-.64.1-1.28.16-1.93.21.67,9.54,1.7,24.18,2.2,30.69-2.65-2.94-8.66-10.59-9.31-20a29.13,29.13,0,0,1,1.48-10.85,30.72,30.72,0,0,1-16-7.15,29.41,29.41,0,0,1-8.55,8.44c-8.47,5.28-18.83,4.55-22.29,4.12l3.5-2.22c3.43-2.17,8-5,12.5-7.85l10.83-6.78c-.4-.52-.77-1-1.12-1.59-8.1,5.07-20.75,13-26.33,16.53,1.36-3.72,5.28-12.62,13.31-17.62A29.19,29.19,0,0,1,443,299.81c-3.24-7.64-5.77-13.39-8.5-19.24a26.07,26.07,0,0,1-5.64,1.6c-9.85,1.57-19.12-3.12-22.14-4.86l4.1-.68c4-.67,9.29-1.53,14.56-2.39l5.68-.92-.89-1.82c-8.55,1.39-18.31,3-23.28,3.82,2.7-2.91,9.77-9.59,19.1-11.09.19,0,.38,0,.56-.05-.09-.2-.17-.36-.28-.56-3.42-6.86-1.89-14.38,3.4-20a27.67,27.67,0,0,1-6.34-4.94c-6.81-7.29-8.11-17.6-8.35-21.08l2.85,3L428,231.33l7.36,7.84c.56-.33,1.15-.64,1.77-.94-6.55-7-16-17.07-20.36-21.62,3.91.61,13.4,2.74,19.86,9.64a29.49,29.49,0,0,1,5.95,9.94c.59-.16,1.16-.34,1.77-.47q14.06-1.86,28.24-2.64a28.22,28.22,0,0,1-3.9-9.1c-2.17-9.74,2-19.28,3.52-22.4.25,1.1.56,2.46.93,4,.9,4,2.08,9.18,3.25,14.4,1,4.59,2.05,9.13,2.88,12.81l2-.07c-2.07-9.27-5.49-24.51-7-31.13,3.06,2.51,10.15,9.17,12.2,18.4a30,30,0,0,1-.14,12.56c2.5,0,5,0,7.49,0,0-17.65-2.7-45.24,7-60.75,11.3-18.06,35.27-14.89,51-5.73A87.34,87.34,0,0,0,560.3,171a3.52,3.52,0,0,0,3.85-2.24c2.07-5-.33-10.67-4.37-13.68-5.79-4.32-12.81-6.61-18.59-11a28,28,0,0,1-11.31-21.26l-134.49,101L258.21,130.05a28.34,28.34,0,0,1-10.88,17.22c-5.78,4.39-12.8,6.68-18.58,11-4.05,3-6.45,8.66-4.38,13.68a3.55,3.55,0,0,0,3.86,2.25,88.35,88.35,0,0,0,8.6-4.84c15.72-9.16,39.68-12.34,51,5.72,9.4,15,7.17,41.43,7,59.1,3.36-.05,6.71-.11,10.07-.08a29.76,29.76,0,0,1-.24-12.55c2-9.25,9-16,12.06-18.5-1.48,6.63-4.78,21.9-6.79,31.19l2,0c.8-3.68,1.78-8.24,2.78-12.84,1.13-5.22,2.27-10.45,3.14-14.42.35-1.58.66-2.95.9-4.05,1.58,3.11,5.78,12.61,3.69,22.37a28.48,28.48,0,0,1-3.83,9.13q14.16.68,28.25,2.43c.62.13,1.19.3,1.78.45a29.57,29.57,0,0,1,5.87-10c6.41-6.95,15.89-9.15,19.79-9.79-4.29,4.59-13.7,14.75-20.19,21.77.61.3,1.2.6,1.78.93l7.3-7.89c3.63-3.92,7.27-7.85,10-10.82l2.83-3c-.22,3.48-1.44,13.8-8.2,21.14a27.51,27.51,0,0,1-6.3,5c5.33,5.6,6.92,13.11,3.54,20-.09.2-.17.37-.27.56l.56.06c9.35,1.43,16.47,8,19.18,10.94-5-.8-14.75-2.32-23.3-3.65l-.87,1.82,5.68.88c5.28.82,10.57,1.65,14.58,2.29l4.1.65c-3,1.76-12.24,6.52-22.11,5a26.58,26.58,0,0,1-5.65-1.55c-2.67,5.86-5.16,11.63-8.35,19.3a28.94,28.94,0,0,1,10.54,3.76c8.06,4.94,12.05,13.81,13.44,17.52-5.6-3.49-18.31-11.32-26.45-16.33-.35.55-.72,1.08-1.11,1.6l10.88,6.69c4.54,2.8,9.11,5.62,12.55,7.76l3.53,2.19c-3.46.46-13.82,1.26-22.32-3.95a29.38,29.38,0,0,1-8.62-8.37,30.71,30.71,0,0,1-16,7.27A28.76,28.76,0,0,1,326.64,330c-.57,9.44-6.52,17.13-9.15,20.09.45-6.51,1.37-21.16,2-30.71-.65,0-1.29-.1-1.93-.19-.23,3.64-.5,8-.78,12.4-.34,5.33-.67,10.68-.94,14.73-.11,1.62-.2,3-.28,4.14-2-2.83-7.61-11.6-7-21.56a28.74,28.74,0,0,1,2.61-10.05,214.86,214.86,0,0,0-28.66.33,30.06,30.06,0,0,1,2.17,12.53c-.58,9.44-6.53,17.13-9.15,20.1.47-6.86,1.46-22.75,2.05-32.19l-2,.19c-.24,3.83-.53,8.61-.84,13.49-.34,5.33-.68,10.69-.95,14.73-.11,1.62-.2,3-.28,4.14-2-2.83-7.61-11.6-7-21.56a28.71,28.71,0,0,1,2.65-10.09l-1.37.16a30,30,0,0,1-21.65-4.16c-.27.62-.52,1.24-.85,1.84-4.46,8.34-13.09,12.84-16.71,14.44,2.47-4.53,7.34-13.56,11.51-21.3-.46-.52-.91-1.06-1.33-1.61l-3.12,5.79c-2.53,4.7-5.08,9.42-7,13-.77,1.43-1.44,2.66-2,3.64-.65-3.42-2.06-13.71,2.66-22.51a27.72,27.72,0,0,1,5.42-7c-3.45-7-6.21-12.48-9.21-18.08a27.82,27.82,0,0,1-8.89,3C207.25,289.18,198.49,285,195,283c5.78-.84,18.05-2.68,27.34-4.08l-1-1.8L213,278.41l-14.6,2.18-4.11.59c2.35-2.58,9.74-9.88,19.61-11.38a25.55,25.55,0,0,1,3.24-.26l-.22-.38c-4-7.07-2.5-15.18,3.26-21.22a28.11,28.11,0,0,1-7.22-6.2c-6-7.35-6.77-17-6.83-21,4,4.95,12.78,15.89,18.78,23.34.55-.35,1.12-.67,1.7-1-2.21-2.74-4.82-6-7.44-9.22-3.35-4.15-6.71-8.33-9.25-11.49l-2.59-3.24c3.41.72,13.45,3.41,19.73,11.16a29.31,29.31,0,0,1,5.23,10.4c.39-.12.76-.26,1.16-.37l1.3-.22c-5-8.44-5.12-18.43-.33-29,1.78-3.9,5.43-9.41,5-13.87-.45-5.13-11.67-3.52-15.41-3.43a8.68,8.68,0,0,1-2,.2c-12-.09-20.08.71-28.58,10.07-4.12,4.53-8.72,9.5-14.69,11.57a27.17,27.17,0,0,1-6.55,1.39l.23,118.73c44.72,3,92.76,29.09,86.68,81.12-2.8,23.93-14.93,47.19-36.22,59.81-16.14,9.57-33,11.87-50.16,10.55l.06,35.52q1,13.62,2.94,26.84a6.35,6.35,0,0,1,1.83-1l1.17-.4a6.47,6.47,0,0,1,8.31,4l4.47,13.36c2.11-.77,4.3-1.55,6.59-2.35L193.87,550a6.51,6.51,0,0,1,4.3-8.17l1.18-.37a6.5,6.5,0,0,1,8.17,4.32l3.87,13q3.26-1.05,6.67-2.1l-3.69-12.91a6.46,6.46,0,0,1,4.58-8l1.19-.32a6.51,6.51,0,0,1,8,4.57l3.34,12.74c2.22-.62,4.46-1.24,6.75-1.85l-3.18-12.71a6.4,6.4,0,0,1,4.84-7.79l1.2-.28A6.47,6.47,0,0,1,249,535l2.86,12.55q3.36-.81,6.82-1.61l-2.72-12.53a6.42,6.42,0,0,1,5.09-7.63l1.21-.25a6.47,6.47,0,0,1,7.7,5L272.33,543q3.39-.69,6.87-1.36l-2.27-12.4a6.44,6.44,0,0,1,5.34-7.47l1.22-.2A6.45,6.45,0,0,1,291,526.8l2,12.32c2.28-.39,4.58-.75,6.91-1.11l-1.83-12.32a6.43,6.43,0,0,1,5.6-7.28l1.22-.16a6.46,6.46,0,0,1,7.35,5.54L313.77,536c2.3-.3,4.61-.6,7-.88l-1.39-12.26a6.39,6.39,0,0,1,5.85-7l1.23-.12a6.49,6.49,0,0,1,7.16,5.81l1.08,12.13c2.32-.22,4.63-.44,7-.64l-.95-12.16a6.37,6.37,0,0,1,6.1-6.86l1.24-.07A6.51,6.51,0,0,1,355,520l.64,12c2.32-.13,4.65-.26,7-.37l-.49-12a6.45,6.45,0,0,1,6.35-6.72h1.24a6.57,6.57,0,0,1,6.72,6.39l.18,11.84c2.31,0,4.66-.06,7-.09l0-11.83a6.6,6.6,0,0,1,6.61-6.54h1.23a6.6,6.6,0,0,1,6.46,6.68l-.26,11.71c2.33,0,4.66.06,7,.12l.38-11.61a6.54,6.54,0,0,1,6.81-6.25l1.24,0a6.38,6.38,0,0,1,6.23,6.76l-.64,11.59c2.32.12,4.66.26,7,.41l.76-11.5a6.49,6.49,0,0,1,7-6l1.23.08a6.4,6.4,0,0,1,6,6.91l-1,11.55c2.31.2,4.64.43,7,.66l1.13-11.48a6.45,6.45,0,0,1,7.18-5.74l1.23.13a6.42,6.42,0,0,1,5.78,7.12l-1.38,11.55q3.48.44,7,.92l1.5-11.59a6.44,6.44,0,0,1,7.35-5.5l1.23.17a6.45,6.45,0,0,1,5.55,7.32l-1.75,11.71q3.45.57,6.91,1.18l1.89-11.82a6.44,6.44,0,0,1,7.52-5.27l1.22.21a6.46,6.46,0,0,1,5.33,7.48l-2.18,12q3.42.71,6.86,1.46l2.33-12.19a6.44,6.44,0,0,1,7.67-5.06l1.2.25a6.45,6.45,0,0,1,5.12,7.63l-2.66,12.53c2.27.55,4.54,1.07,6.81,1.66l2.82-12.68a6.44,6.44,0,0,1,7.81-4.83l1.2.27a6.44,6.44,0,0,1,4.89,7.77L543,552.17c2.23.64,4.47,1.33,6.71,2l3.39-13.38a6.48,6.48,0,0,1,8-4.63l1.2.31a6.41,6.41,0,0,1,4.64,7.94L563,558.33c2.2.73,4.42,1.46,6.63,2.21l4.06-14.19a6.53,6.53,0,0,1,8.11-4.42l1.19.36a6.52,6.52,0,0,1,4.39,8.12l-4.57,14.8c2.18.8,4.36,1.57,6.54,2.41l4.85-15.1a6.46,6.46,0,0,1,8.24-4.09l1.17.39a6.44,6.44,0,0,1,4.15,8.23l-5.45,15.71c2.13.87,4.27,1.8,6.41,2.71l1.88-5.22a365.21,365.21,0,0,0,6.62-47.43l.07-34.82C595.6,491.77,574,491.25,553.67,479.17Z" transform="translate(-171.87 -14.21)"/><path class="cls-2" d="M368.45,735.65v47.11c1.8.27,3.61.45,5.41.67v-47C372.05,736.19,370.25,735.91,368.45,735.65Z" transform="translate(-171.87 -14.21)"/><path class="cls-2" d="M215.39,584.73q-4.08,1.34-7.84,2.64v64.89q4.51,9,9.52,17.61c-.56-1-1.13-1.89-1.68-2.85Z" transform="translate(-171.87 -14.21)"/><path class="cls-2" d="M240.77,696.05V664.72c-4.66-4.68-7.87-8.22-9.45-10V692c3.05,4.28,6.2,8.46,9.45,12.5v-8.43Z" transform="translate(-171.87 -14.21)"/><path class="cls-2" d="M223.15,645.1l4.93-5.82V580.74c-3,.89-5.86,1.79-8.64,2.68v90.37q4.17,6.88,8.64,13.43V650.91Z" transform="translate(-171.87 -14.21)"/><path class="cls-2" d="M195.68,591.67v33.78q-3-7.76-5.67-15.77V593.85q-2.3.9-4.37,1.75a333.65,333.65,0,0,0,17.06,46.5v-53C200.25,590,197.89,590.83,195.68,591.67Z" transform="translate(-171.87 -14.21)"/><path class="cls-2" d="M280.45,698.14v45.63q4.26,3.32,8.64,6.39V704C286.11,702.06,283.24,700.11,280.45,698.14Z" transform="translate(-171.87 -14.21)"/><path class="cls-2" d="M343,776.87c-1.87-.59-3.73-1.19-5.58-1.83Q340.17,776,343,776.87Z" transform="translate(-171.87 -14.21)"/><path class="cls-2" d="M343.89,730.11v47c1.53.46,3.06.92,4.6,1.35V731.43C347,731,345.41,730.58,343.89,730.11Z" transform="translate(-171.87 -14.21)"/><path class="cls-2" d="M356.57,733.46v47c1.52.34,3.07.6,4.6.9v-47C359.63,734.11,358.1,733.8,356.57,733.46Z" transform="translate(-171.87 -14.21)"/><path class="cls-2" d="M253.45,696.05V676.7c-3.86-3.45-7.29-6.68-10.25-9.58v28.93h0V707.4q5,6,10.26,11.67v-23Z" transform="translate(-171.87 -14.21)"/><path class="cls-2" d="M277.21,695.84c-3.29-2.39-6.46-4.78-9.45-7.14v44.41c3.09,2.79,6.25,5.45,9.45,8V695.84Z" transform="translate(-171.87 -14.21)"/><path class="cls-2" d="M265.33,694.84v-8.09c-3.67-3-7.11-5.84-10.26-8.61v17.91h0V720.8c3.34,3.49,6.77,6.82,10.26,10.06v-36Z" transform="translate(-171.87 -14.21)"/><path class="cls-2" d="M380.33,736.94v47.23c2.07.18,4.14.34,6.22.44V737.2C384.47,737.15,382.39,737.08,380.33,736.94Z" transform="translate(-171.87 -14.21)"/><path class="cls-2" d="M318.52,720.32v47c2.06,1,4.12,1.92,6.21,2.83V723.08Q321.58,721.75,318.52,720.32Z" transform="translate(-171.87 -14.21)"/><path class="cls-2" d="M293.13,706.55v46.32q3.89,2.6,7.84,5V711.25C298.29,709.71,295.69,708.14,293.13,706.55Z" transform="translate(-171.87 -14.21)"/><path class="cls-2" d="M331.2,725.71v47.11c1.79.69,3.6,1.31,5.41,1.95v-47C334.79,727.08,333,726.4,331.2,725.71Z" transform="translate(-171.87 -14.21)"/><path class="cls-2" d="M305.82,713.93v46.82c2.32,1.32,4.67,2.56,7,3.77V717.6Q309.27,715.82,305.82,713.93Z" transform="translate(-171.87 -14.21)"/><path class="cls-2" d="M251.15,278.11A38,38,0,1,0,288,238.94,38,38,0,0,0,251.15,278.11Zm37.51-18.05a16.9,16.9,0,1,1-16.39,17.41A16.9,16.9,0,0,1,288.66,260.06Z" transform="translate(-171.87 -14.21)"/><path class="cls-2" d="M503.12,237.31a38,38,0,1,0,37.16,38.89A38,38,0,0,0,503.12,237.31Zm-1.25,54.93a16.9,16.9,0,1,1,17.28-16.52A16.9,16.9,0,0,1,501.87,292.24Z" transform="translate(-171.87 -14.21)"/><g class="cls-3"><g class="cls-4"><path class="cls-5" d="M394.19,466,270,522.42l124.15,73.35,124.1-73.35Z" transform="translate(-171.87 -14.21)"/></g></g><g class="cls-6"><g class="cls-7"><path class="cls-8" d="M270,522.42l124.15,73.35V316.44Z" transform="translate(-171.87 -14.21)"/></g></g><g class="cls-9"><g class="cls-10"><path class="cls-11" d="M394.19,316.44V595.77l124.1-73.35Z" transform="translate(-171.87 -14.21)"/></g></g><g class="cls-6"><g class="cls-12"><path class="cls-13" d="M270,545.94l124.15,174.9V619.29Z" transform="translate(-171.87 -14.21)"/></g></g><g class="cls-9"><g class="cls-14"><path class="cls-15" d="M394.19,619.29V720.84l124.2-174.9Z" transform="translate(-171.87 -14.21)"/></g></g></g></svg>